<?xml version="1.0" encoding="utf-8"?>
<!-- Generator: Adobe Illustrator 25.2.1, SVG Export Plug-In . SVG Version: 6.00 Build 0)  -->
<svg version="1.1" xmlns="http://www.w3.org/2000/svg" xmlns:xlink="http://www.w3.org/1999/xlink" x="0px" y="0px"
	 viewBox="0 0 267 50" style="enable-background:new 0 0 267 50;" xml:space="preserve">
<style type="text/css">
	.st0{fill:url(#SVGID_1_);}
	.st1{fill:#FFFFFF;}
	.st2{font-family:'Sansation-Regular';}
	.st3{font-size:36.5913px;}
	.st4{font-family:'DBAdmanX';}
	.st5{font-size:15.9397px;}
</style>
<g id="Layer_1">
</g>
<g id="Layer_2">
	<g id="PathID_17_1_" transform="matrix(0.179487, -0.395607, 0.395607, 0.179487, 128.15, 184.8)">
		<radialGradient id="SVGID_1_" cx="238.3753" cy="-375.4444" r="21.1515" gradientUnits="userSpaceOnUse">
			<stop  offset="0" style="stop-color:#FFFFFF"/>
			<stop  offset="1" style="stop-color:#DEDEDE"/>
		</radialGradient>
		<path class="st0" d="M258.7-396.9c2.9-4.9,6-7.3,9.1-7c6.5,0.4,13.8,14.9,22,43.5c-8.9-26.7-16.6-32.9-22.9-18.6l-15.1,34
			c-3.9,8.8-10.5,11.7-19.9,8.7l21.4-49.3C255.5-390.5,257.2-394.2,258.7-396.9 M242.5-425.3c4.3-7.5,8.8-11,13.6-10.6
			c9.7,0.8,20.8,22.6,33.3,65.5c-13.7-40.3-25.3-49.7-34.7-28.1l-22.2,48.8c-5.8,13.1-15.7,17.5-29.7,13.3l31.7-72
			C237.5-415.8,240.1-421.4,242.5-425.3 M277.4-362.3c1.1-2,2.4-3,3.8-3c2.8,0.2,5.9,6.4,9.3,18.5c-3.8-11.3-7-14-9.6-8l-6.6,14.4
			c-1.7,3.9-4.4,5.2-8.3,3.8l9.2-21C276.1-359.6,276.8-361.2,277.4-362.3 M275.3-366.1l-10.9,24.7c-2.4,5.3-6.5,7-12.4,5.1
			l15.2-33.9c1.2-2.9,2.3-5.2,3.2-6.8c1.7-3,3.5-4.5,5.4-4.3c4,0.3,8.5,9.2,13.4,26.7C283.9-370.9,279.2-374.7,275.3-366.1"/>
	</g>
	<g>
		<g>
			<text transform="matrix(1 0 0 1 59.2734 28.7998)" class="st1 st2 st3">Scan</text>
		</g>
		<g>
			<text transform="matrix(1 0 0 1 143.9043 28.7988)" class="st1 st2 st3">Condo</text>
		</g>
	</g>
	<text transform="matrix(1 0 0 1 66.0601 46.0513)" class="st1 st4 st5">สแกน ซื้อ | ขาย | เช่า คอนโดที่ใช่... ที่นี่</text>
</g>
</svg>
